<?xml version="1.0" standalone="no"?>
<!DOCTYPE svg PUBLIC "-//W3C//DTD SVG 20010904//EN"
 "http://www.w3.org/TR/2001/REC-SVG-20010904/DTD/svg10.dtd">
<svg version="1.0" xmlns="http://www.w3.org/2000/svg"
 width="256.000000pt" height="256.000000pt" viewBox="0 0 256.000000 256.000000"
 preserveAspectRatio="xMidYMid meet">
<metadata>
Created by potrace 1.14, written by Peter Selinger 2001-2017
</metadata>
<g transform="translate(0.000000,256.000000) scale(0.100000,-0.100000)"
fill="#000000" stroke="none">
<path d="M1048 2320 c-2 -23 -1 -45 2 -50 3 -4 61 -7 130 -5 69 2 162 4 208 4
l82 1 0 30 c0 17 -3 31 -7 32 -18 3 -200 17 -319 23 l-92 5 -4 -40z"/>
<path d="M1672 2325 c-2 -29 1 -30 143 -49 61 -9 129 -18 153 -22 39 -5 42 -4
43 18 1 23 -1 51 -5 55 -1 1 -44 4 -96 8 -52 3 -127 7 -165 10 -69 4 -71 3
-73 -20z"/>
<path d="M805 2221 c-11 -5 -92 -78 -179 -163 l-159 -154 0 -82 c-1 -71 -3
-82 -18 -82 -10 0 -38 -12 -63 -27 -55 -34 -92 -99 -95 -165 -1 -13 -9 -18
-31 -18 -25 0 -30 -4 -36 -35 -8 -43 3 -104 19 -107 7 0 18 -2 26 -2 9 -1 19
-22 27 -54 6 -30 17 -65 25 -79 16 -30 92 -83 124 -85 22 -2 22 -4 21 -125
l-1 -123 55 -19 c117 -42 243 -92 267 -108 16 -11 49 -17 96 -18 56 -2 71 -5
68 -16 -2 -8 -8 -32 -14 -54 -5 -22 -16 -53 -23 -70 -53 -127 4 -254 152 -332
61 -33 198 -77 282 -90 81 -14 311 -7 391 10 84 19 182 63 224 101 57 53 81
146 56 226 -6 19 -13 55 -15 79 -6 51 -27 97 -58 123 -26 21 -34 20 149 23 83
1 155 3 162 4 16 1 57 41 71 68 18 33 17 1279 -1 1313 -7 13 -28 35 -46 47
l-34 23 -711 -1 c-391 0 -720 -4 -731 -8z"/>
</g>
</svg>
